<svg clip-rule="evenodd" fill-rule="evenodd" stroke-linejoin="round" stroke-miterlimit="1.41421" viewBox="0 0 1024 1024" xmlns="http://www.w3.org/2000/svg" xmlns:xlink="http://www.w3.org/1999/xlink"><clipPath id="a"><path clip-rule="evenodd" d="m279.2 1.525c-22.461 6.09-46.775 33.475-57.333 64.575-4.312 12.7-5.147 28.212-2.013 37.4l2.046 6-2.95 2.35c-1.615 1.286-7.44 8.55-12.871 16.05-14.12 19.5-12.716 18.864-19.667 8.9-7.357-10.544-17.612-21.23-28.412-29.604-17.4-13.492-20.974-16.607-23.633-20.596-5.468-8.2-10.513-12.278-13.667-11.043-2.257.883-6.541 7.843-9.259 15.043-6.425 17.017-.275 35.4 18.064 54 9.607 9.743 20.295 17.481 31.695 22.948 6.4 3.068 7.789 3.383 12.5 2.828 7.53-.885 7.608.424.835 14.124-3.433 6.945-8.678 20.7-13.422 35.2-6.641 20.3-11.909 33.237-15.962 39.2-.713 1.05-1.481.2-3.072-3.4-7.768-17.578-27.079-37.386-45.579-46.753-14.5-7.342-30.925-9.153-43.8-4.831-7.897 2.652-7.721.284-1.568 21.084 7.071 23.9 13.145 35.898 23.993 47.4 10.39 11.015 26.075 19.353 48.375 25.717 4.4 1.256 8.09 2.328 8.2 2.383.111.055-.708 3-1.836 6.6-2.82 9.004-4.535 17.6-7.441 37.3-1.387 9.4-2.993 19.126-3.566 21.6-1.391 6-4.977 18.42-5.457 18.9-.22.22-3.5-2.528-7.3-6.117-11.239-10.614-25.3-17.899-44.1-22.846-7.317-1.926-10.65-2.209-23.95-2.037-13 .168-16.053.509-19.25 2.15-2.1 1.078-3.8 2.576-3.8 3.35 0 2.053 7.299 15.7 13.425 25.1 7.43 11.4 15.743 20.844 24.375 27.691 13.667 10.841 21.1 13.284 44.6 14.656 8 .467 14.939 1.192 15.35 1.603s.552 7.85.311 16.45c-.743 26.6-.535 39.47.693 42.9.895 2.5.873 3.736-.104 5.65-1.045 2.048-.889 4.55.95 15.25 2.303 13.4 5.493 39.507 4.9 40.1-.681.681-9.3-4.926-18.1-11.774-4.9-3.813-11.147-8.035-13.9-9.394-6.94-3.426-19.2-5.007-34.3-4.423-11.737.454-13.8.85-27.2 5.221-19.8 6.459-23.094 7.781-24.336 9.77-2.802 4.49 19.336 28.459 35.736 38.692 29.9 18.656 64.357 23.422 82.6 11.425 3-1.973 6.682-4.435 8.1-5.417l2.6-1.8 4.315 11.7c7.449 20.2 16.829 41.999 24.785 57.6 4.232 8.3 7.835 15.415 8 15.8.167.389-3.7-1.474-8.7-4.191-21.3-11.575-30.624-14.488-46.1-14.403-13.858.076-20.6 1.711-34.7 8.417-15.5 7.372-23.941 13.151-24.796 16.977-.804 3.6-.804 3.6 10.296 10.622 16.41 10.382 34 16.065 60.1 19.418 19.1 2.453 26.389 2.115 32.6-1.514 4.492-2.624 15.185-13.526 18.073-18.426 1.002-1.7 2.075-3.1 2.377-3.1.303 0 2.088 2.6 3.981 5.8 5.356 9.054 18.678 29.1 32.033 48.2 6.712 9.6 12.439 17.997 12.686 18.6.323.789-1.05.85-4.85.217-9.931-1.656-24.9 1.22-36.3 6.972-14.9 7.519-28.462 20.756-35.768 34.911-4.955 9.6-8.233 19.531-7.262 22 .626 1.591.73 1.588 17.53-.37 2.962-.346 11.9-.041 19.8.675 17.3 1.569 23.311.816 34.9-4.37 4.3-1.924 10.201-4.036 12.95-4.635 4.337-.945 6.25-2.258 13.55-9.3 4.7-4.534 9.774-10.212 11.35-12.7 1.583-2.5 2.972-4.678 3.126-4.9.568-.826 9.658 7.4 11.382 10.3 1.02 1.717 4.742 5.242 8.342 7.9 3.575 2.64 10.685 9.3 15.8 14.8s14.7 14.426 21.3 19.836c10.2 8.361 18.5 17.093 18.5 19.464 0 1.315-5.6 2.697-20.8 5.132-18.6 2.979-24.928 5.539-33.7 13.632-3.333 3.076-9.6 8.036-14.1 11.16-9.6 6.666-15.696 12.981-17.349 17.976-2.249 6.791-1.751 7.349 11.449 12.823 6.6 2.738 14.43 5.674 17.4 6.527 5.2 1.493 5.57 1.472 10-.55 2.525-1.153 9.2-2.973 14.8-4.037 11.3-2.145 15.178-3.836 23.8-10.375 6.984-5.297 14.556-14.688 23.05-28.588l6.05-9.9 9.45 6.45c5.206 3.553 22.25 14.142 37.95 23.577 23.1 13.882 40.674 25.133 53.5 34.25.945.671 3.7-1.27 10.1-7.119 17.5-15.992 17.683-16.424 8.2-19.312-10.927-3.327-32.6-14.978-50.3-27.042-8.814-6.007-23.5-15.956-32.7-22.154s-16.475-11.587-16.2-12 3.2-2.193 6.5-3.956c10.89-5.819 16.253-14.494 22.003-35.594 2.688-9.865 2.151-17.9-2.126-31.8-2.061-6.698-3.352-13.5-3.908-20.6-.848-10.8-2.077-14.9-4.469-14.9-.762 0-5 3.401-9.3 7.463-8.942 8.447-16.615 19.937-21.796 32.637-5.446 13.352-6.521 18.9-7.188 37.1-.338 9.2-.888 16.8-1.216 16.8-1.211 0-34.8-27.479-47.2-38.614-11.8-10.596-20.49-19.669-29.197-30.486-2.013-2.5-3.703-4.851-3.703-5.15 0-.301 2.9-1.905 6.4-3.54 11.391-5.323 19.96-15.11 27.676-31.61 6.038-12.912 8.341-23.1 8.386-37.1.033-10.299-.27-12.638-2.134-16.5-2.221-4.6-18.453-24.477-21.528-26.361-3.635-2.228-18.899 13.961-25.232 26.761-6.339 12.81-7.891 20.7-7.985 40.6-.046 9.6.256 21.337.667 26l.75 8.5-5.594-6c-14.054-15.073-39.62-49.6-52.276-70.6l-2.23-3.7 5.8-1.674c19.162-5.531 32.908-25.526 41.952-61.026 2.012-7.895 2.738-14 3.448-29 .497-10.5 1.012-21.013 1.15-23.5l.25-4.5-4.5-.337c-14.8-1.109-33.573 9.437-43.146 24.237-7.998 12.366-10.529 23.6-11.919 52.9-.57 12-1.368 22.699-1.776 23.8-1.194 3.225-22.447-46.5-29.534-69.1-4.171-13.3-7.876-30.224-6.825-31.17.385-.347 2.5-1.196 4.7-1.887 11.133-3.499 25.8-12.448 42.5-25.931 10.552-8.52 13.035-12.412 16.659-26.112 2.378-8.991 2.031-26.6-.874-44.4l-2.285-14-8.1-2.8-5.65 4.6c-3.082 2.509-9.65 6.938-14.45 9.745-12.9 7.541-18.889 12.355-23.955 19.255-5.291 7.207-12.161 21.2-15.416 31.4-1.276 4-2.656 6.938-3.053 6.5-2.591-2.862-5.285-64.1-3.463-78.7l.687-5.5h5.8c6.771 0 18.9-3.312 31.1-8.491 4.7-1.996 11.406-4.271 15-5.09 7.629-1.738 10.855-4.419 17.956-14.919 6.611-9.777 8.493-13.8 11.975-25.6 1.682-5.7 3.747-12.095 4.569-14.15.84-2.1 1.5-4.19 1.5-4.75 0-1.996-6.6-4.234-13.9-4.714-10.062-.661-20.3 1.565-31.1 6.764-10.588 5.096-16.8 9.747-29.6 22.159-6.2 6.012-10.475 9.46-10.9 8.791-.387-.609-.007-3.2.85-5.8.849-2.575 2.047-9.9 2.648-16.2 1.232-12.9 4.361-32.372 6.733-41.9 1.22-4.9 1.925-6.198 3.169-5.84 20.9 6.01 22.006 6.19 30 4.878 21.9-3.595 34.948-8.802 43.448-17.338 5.89-5.914 15.577-24.2 20.132-38 2.509-7.6 3.294-16.997 1.638-19.6-1.172-1.841-23.918-6.123-32.818-6.177-12.6-.077-25.394 5.661-34.288 15.377-3.569 3.9-11.589 8.794-13.812 8.429-1.913-.315-1.849-.829 1.476-11.829 5.925-19.6 15.491-41.153 24.101-54.3l2.423-3.7 7.9 7.413c9.455 8.873 21.2 15.008 41.4 21.627 7.2 2.359 16.346 5.576 20.5 7.21 4.1 1.613 9.903 3.582 12.8 4.343 8.804 2.315 24.5 1.549 34.9-1.704 4.448-1.391 6.065-5.689 4.435-11.789-3.54-13.256-22.035-25.446-57.135-37.659-9.1-3.166-19.191-7.087-22.5-8.741-5.392-2.696-7.15-3.051-17.35-3.5-7.9-.348-11.503-.895-11.853-1.8-.638-1.647 8.422-20.3 13.649-28.1 2.278-3.4 5.689-7.148 7.554-8.3 1.9-1.174 3.665-2.96 4-4.05.386-1.254 2.1-2.31 4.8-2.959 8.976-2.156 18.7-8.072 28.2-17.156 10.753-10.283 17.817-20.035 24.145-33.335 6.756-14.2 7.341-18.233 4.545-31.3-1.263-5.9-3.03-14.939-3.94-20.15-1.065-6.1-2.351-10.265-3.628-11.75-2.289-2.662-2.422-2.673-9.422-.775z"/></clipPath><clipPath id="b"><path clip-rule="evenodd" d="m2711.7 2.377c-1.88 1.758-2.7 3.523-2.7 5.823 0 1.828-.64 6.2-1.44 9.8-5.53 25-5.89 28.013-4.12 34.4 2.13 7.722 9.39 22.2 15.29 30.5 11.09 15.6 26.41 28.201 38.97 32.063 5.35 1.644 7.35 2.987 13.25 8.887 6.03 6.027 7.89 8.85 14 21.25 3.9 7.9 6.71 14.613 6.3 15-.42.388-5.65.9-11.75 1.15-9.6.393-11.83.838-17.5 3.5-3.56 1.672-12.6 5.177-20 7.758-41.7 14.544-60.01 27.333-60.27 42.092-.11 6.37 2.07 8.192 11.87 9.939 15 2.674 25.81 1.772 37.4-3.118 3.02-1.273 12.5-4.641 21-7.458 25.4-8.418 40.03-16.294 48.4-26.063 1.97-2.3 3.75-4.019 3.92-3.8 5.6 6.938 18.93 35.2 24.02 50.9 5.8 17.9 6.04 19 4.06 19-2.96 0-9-3.899-16.3-10.517-14.52-13.162-24.9-15.593-49.2-11.518-16.5 2.767-17.45 3.483-16.61 12.535 1.17 12.7 14.04 40.591 22.71 49.23 5.1 5.082 13.3 10 20.5 12.295 2.2.701 10.05 2.467 17.45 3.925l13.45 2.65 11.45-3.35c8.5-2.487 11.64-3.041 12.2-2.15 1.95 3.126 7.25 33.2 8.44 47.9.34 4.1 1.36 10.56 2.26 14.25.9 3.7 1.33 7.044.95 7.4-.39.36-5.95-4.466-12.45-10.8s-13.98-12.983-16.75-14.881c-10.89-7.475-27.5-12.969-39.2-12.969-5.4 0-13.29 1.745-15.5 3.429-1.71 1.301-1.68 1.721.65 8.221 1.35 3.767 3.8 11.35 5.45 16.85 2.34 7.8 4.35 11.98 9.15 19 9.29 13.6 11.45 15.486 19.45 16.974 2.16.402 9.3 2.866 16 5.521 14.4 5.708 23.22 8.005 30.7 8.005h5.6l.37 19.8c.43 23.7-.44 46.833-2.18 57.4-1.3 7.9-2.24 9.028-3.44 4.1-1.48-6.127-8.06-21.3-12.43-28.7-5.9-9.972-13.42-16.941-26.62-24.66-5.8-3.392-12.72-8.132-15.45-10.59-4.4-3.956-5.32-4.378-8.3-3.8-1.8.349-3.95 1.021-4.65 1.451-1.93 1.191-6.05 29.399-6.07 41.599-.02 11.5 2.26 22.026 6.64 30.7 2.32 4.582 4.83 7.2 13.83 14.4 6.1 4.88 14.47 10.967 18.8 13.664 8.4 5.238 22.05 11.578 25 11.613 1.7.021 1.83.523 1.21 4.823-2.74 19.067-13.95 50.3-33.64 93.7l-2.27 5-.65-4c-.36-2.212-.96-11.6-1.35-21-.85-20.6-2.02-29.51-5.16-39.5-6.87-21.8-25.5-37.283-46.64-38.762-7.6-.531-7.71-.506-8.35 1.962-.35 1.359.06 4.85.9 7.65 1.19 3.945 1.41 7.9.95 16.9-.5 9.8-.23 13.542 1.61 22.55 8.02 39.2 23.21 63.275 43.69 69.23 3 .872 5.4 1.792 5.4 2.07 0 1.137-21.71 33.5-29.52 44-8.4 11.3-24.41 30.351-28.48 33.897l-2.3 2.003.65-3.5c.36-1.936 1.11-9.4 1.67-16.7 2.42-31.1-4-54.3-19.7-71.3-7.76-8.4-11.58-11.271-13.82-10.408-1.88.722-16.9 18.708-20.22 24.208-2.88 4.755-4.66 15.7-3.84 23.5 3.08 29.1 17.92 54.979 36.76 64.106l6.8 3.294-5.61 6.9c-12.23 15.044-30.79 32.375-58.69 54.813-8.7 6.996-16.26 12.402-16.7 11.937-.44-.47-1-8.45-1.25-17.85-.42-15.8-.67-17.649-3.58-26.2-6.56-19.3-17.17-36.302-27.97-44.809-3.1-2.443-6.2-4.491-6.8-4.491-2 0-3.43 4.9-4.02 13.8-.35 5.287-1.98 13.8-4.15 21.7-4.7 17.1-4.75 23.32-.31 37.5 5.75 18.4 9.09 23.274 20.38 29.786 6.9 3.98 7.75 4.755 6.2 5.637-1.89 1.074-15.4 10.093-49.5 33.048-20.6 13.867-35.89 22.128-48.1 25.989-5.1 1.613-7.51 2.884-7.75 4.09-.24 1.177 3.5 5.42 11.4 12.95l11.75 11.2 10.1-7.25c5.55-3.988 24.5-15.89 42.1-26.45s36.14-22.057 41.2-25.55l9.2-6.35 3.21 5.7c10.49 18.6 23.69 33.527 34.19 38.658 2.84 1.391 10.5 3.652 16.9 4.992s13.01 3.22 14.6 4.15c2.77 1.626 3.2 1.609 9.8-.4 3.81-1.16 11.6-4.07 17.4-6.5 9.9-4.149 10.52-4.577 10.8-7.5.66-6.713-5.7-14.708-18.6-23.388-4-2.692-10.28-7.624-13.9-10.912-3.6-3.273-7.78-6.61-9.2-7.342-4.52-2.334-13.2-4.44-26.7-6.479-7.2-1.088-14.27-2.519-15.7-3.179-2.2-1.015-2.43-1.523-1.48-3.3 1.93-3.6 9.98-11.602 18.78-18.672 4.68-3.758 14.16-12.628 21.1-19.728 6.93-7.1 14.69-14.136 17.25-15.65 2.6-1.538 4.65-3.367 4.65-4.15 0-1.63 7.6-9.565 10.8-11.277 1.85-.987 2.31-.723 3.82 2.177 4 7.7 21.64 23.656 26.18 23.684 1.49.009 6.6 1.753 11.4 3.891 12.9 5.745 17.23 6.548 29.7 5.508 13-1.083 28.55-1.114 36.6-.073 8.5 1.099 8.99.498 6.43-7.91-2.64-8.7-8.55-19.853-14.64-27.6-15.35-19.55-42.69-32.134-63.09-29.04-3.4.515-6.2.782-6.2.59s6.42-9.5 14.2-20.6 18.38-26.802 23.45-34.75c5.1-8 9.83-15.307 10.55-16.3 1.19-1.655 1.66-1.3 5.81 4.4 5.23 7.2 12.39 13.883 17.69 16.504 6.39 3.161 25.5 2.263 48.8-2.292 15.2-2.972 32.15-10.032 45.9-19.118 6.7-4.428 6.79-4.547 6.1-8.094-.39-2-.77-3.667-.85-3.75-.08-.082-5.05-3.124-10.95-6.704-22.4-13.595-41.33-18.051-60.1-14.146-9.41 1.957-17.1 5.015-31.1 12.367l-11.3 5.933 7.28-14.1c8.87-17.175 14.72-30.6 23.43-53.7l6.59-17.5 9.4 5.691c10.04 6.079 16.2 7.809 27.8 7.809 31.6 0 71.52-22.109 89.19-49.4 5.78-8.924 7.71-7.406-21.89-17.201-13.4-4.435-15.42-4.83-26.6-5.208-22.3-.754-33.03 1.925-44.9 11.215-3.28 2.566-9.4 6.983-13.5 9.744l-7.5 5.05-.34-2.7c-.4-3.247 2.17-24 4.86-39.2 1.48-8.4 1.72-11.875.93-13.9-.73-1.883-.7-4.35.1-8.15.8-3.784.92-13.2.4-30.8l-.75-25.35 2.7-1.05c1.5-.583 5.9-1.05 9.9-1.05 17.3 0 31.5-3.297 41.5-9.633 13.3-8.426 30.78-29.667 40.73-49.467 4.07-8.1 4.25-8.805 2.67-10.218-3.23-2.882-7-3.526-21.9-3.736-15.6-.219-19.16.293-32.8 4.717-15 4.866-26.71 11.616-36.8 21.215l-5.7 5.422-1.08-2.9c-2.24-6.01-5.85-23.5-8.44-40.9-1.47-9.9-3.8-22.275-5.18-27.5-1.37-5.2-2.7-10.405-2.95-11.5-.4-1.772.95-2.436 11.85-5.835 34.8-10.849 50.21-24.015 61.66-52.665 3.35-8.4 11.14-33.631 11.14-36.1 0-1.935-6-4.405-14.5-5.969-26.14-4.812-63.71 18.969-79.43 50.269-2.77 5.5-4.15 7.357-4.84 6.5-3.31-4.098-9.53-19.3-16.42-40.1-4.9-14.8-9.8-27.536-12.86-33.45-2.75-5.3-4.95-10.863-4.95-12.5v-2.95l5.65.6c5.26.558 6.25.297 14.25-3.747 28.3-14.304 48.11-37.808 50.79-60.253.44-3.696.03-7-1.51-12-2.25-7.3-7.59-16.974-10.28-18.613-2.55-1.556-8.55 2.713-12.53 8.913-3.54 5.524-9.87 11.275-23.17 21.05-10.4 7.644-23.48 21.048-30.31 31.05l-5.59 8.2-4-4.2c-2.22-2.328-6.56-7.9-9.75-12.5s-7.98-10.73-10.75-13.75l-5-5.45 1.82-5.3c4.16-12.166 1.33-32.1-7.18-50.5-10.41-22.5-30.65-43.693-47.84-50.092-9.2-3.424-10.92-3.515-13.9-.731z"/></clipPath><clipPath id="c"><path clip-rule="evenodd" d="m670.8 204.019c-16 1.206-35.375 4.607-46.1 8.09-4.9 1.592-11.821 3.571-15.4 4.404-8.506 1.98-27.2 9.329-38.1 14.978-6.264 3.246-11.5 7.099-18.7 13.759-5.5 5.087-14.275 12.833-19.5 17.212-11.901 9.973-11.32 9.259-16.683 20.538-2.473 5.2-6.015 11.763-7.827 14.5-3.901 5.893-7.702 17-10.574 30.9-2.728 13.2-2.913 23.647-.523 29.6 1.57 3.91 1.662 5.3.704 10.6-1.628 9-1.385 15.351.833 21.8 4.299 12.5 14.613 27.811 23.47 34.839 11.28 8.952 30.8 15.408 49.6 16.404 6.2.329 12.834 1.335 16.2 2.457 5.361 1.787 6.2 1.812 14.1.425 14.8-2.6 33.107-10.301 40.7-17.122 2.157-1.938 4.694-5.603 5.677-8.203 2.306-6.1 2.304-17.3-.004-23.4-2.058-5.44-4.773-6.8-13.573-6.8-9.089 0-13.466 3.9-20.875 18.6-1.714 3.4-4.344 7.158-5.825 8.322-4.27 3.354-13 5.502-21.9 5.388-10.8-.139-29.453-4.607-33.8-8.097-10-8.028-18.7-18.084-18.7-21.613 0-1.211-2.091-6.45-4.65-11.65-4.281-8.7-4.687-10.164-5.11-18.45-.917-17.915 7.802-45.2 21.538-67.4 8.662-14 12.685-18.594 17.122-19.552 1.983-.428 4.727-2.648 8.095-6.548 4.414-5.111 16.105-14.5 25.305-20.322 4.552-2.881 68-18.075 82.9-19.852 5.824-.695 14.7-.703 27.5-.026 20.153 1.066 21.5 1.362 43.3 9.537 5.2 1.95 10.699 3.812 12.15 4.113 1.452.301 7.35 4.075 13.05 8.35 6.5 4.875 12.762 8.663 16.7 10.1 3.9 1.424 8.3 4.071 11.55 6.95 2.893 2.562 9.65 8.226 15.05 12.615 11.4 9.265 18.973 17.998 23.269 26.835 5.038 10.362 9.234 25.2 12.047 42.6 2.491 15.405 2.662 18.4 2.384 41.6-.187 15.6-.872 28.76-1.82 35-1.597 10.5-4.643 23.593-6.561 28.2-3.165 7.6-18.846 34.128-22.817 38.6-5.103 5.746-14.502 12.186-20.302 13.911-2.3.684-5.615 2.868-7.8 5.139-3.8 3.95-3.8 3.95-14.6 4.92-20.4 1.832-24.323 1.527-40.3-3.134-20.3-5.923-30.291-9.196-31.8-10.417-1.683-1.363-1.067-3.819 3.897-15.519 2.503-5.9 3.903-10.724 3.903-13.45 0-2.355.892-7.95 2-12.55 1.867-7.75 1.957-10.5 1.349-41.5-1.018-51.9-.838-60.544 1.575-75.6 2.051-12.8 4.648-23.767 7.791-32.9 2.132-6.192 5.385-7.573 15.785-6.698 5.6.471 9.016.314 10.5-.484 5.389-2.894 8.418-18.518 4.677-24.118-2.156-3.226-10.077-7.6-15.277-8.436-4.388-.705-9.6.435-19.4 4.244-8.5 3.304-12.393 6.3-15.709 12.092-1.495 2.611-4.247 7.1-6.191 10.1-2.532 3.906-4.552 9.3-7.304 19.5-5.992 22.215-6.083 23-5.337 46.1.776 24 .924 45.448.462 67-.178 8.3-.19 18.127-.027 22 .441 10.5-6.721 36.155-11.294 40.457-4.571 4.299-11 3.985-27-1.321-14.8-4.908-19.605-5.47-30.2-3.533-7 1.279-22.545 9.359-27.122 14.097-4.162 4.309-6.278 12.5-6.278 24.3 0 8.1.293 9.51 2.928 14.1 3.388 5.9 9.866 12.019 14.972 14.141 9.323 3.876 26.2 3.515 38.8-.828 7.877-2.716 17.8-8.75 25.8-15.689 3.6-3.122 9.418-7.457 12.8-9.536 7.09-4.359 7.7-4.355 21.2.145 10 3.334 21.563 6.653 31.5 9.042 10.1 2.429 46.136 2.276 55.5-.235 16.2-4.344 37.557-16.293 44.578-24.94 2.328-2.867 9.022-9.91 14.922-15.7 9.6-9.421 11.173-11.477 15.3-20 3.134-6.472 5.891-14.6 8.65-25.5 2.227-8.8 5.199-20.275 6.603-25.5 3.224-12 4.538-37.248 2.394-46-.799-3.265-1.389-11.8-1.45-21-.152-23.032-3.857-37-16.311-61.5-7.37-14.5-14.419-23.016-19.986-24.147-3.566-.724-4.474-1.653-6.013-6.153-1.916-5.6-7.122-12.034-11.987-14.814-2.599-1.485-8.5-6.352-13.2-10.886-6.528-6.298-11.4-9.847-21-15.3-6.9-3.919-13.844-7.628-15.5-8.278-10.4-4.083-35.22-11.152-43.8-12.475-12.169-1.876-50.2-2.688-66.9-1.428zm-20.4 308.122c5.092 2.325 4.3 5.217-3.3 12.049-5.1 4.585-14.212 8.81-19 8.81-3.933 0-6.31-3.1-6.9-9-.46-4.6-.248-5.232 2.65-7.9 1.741-1.603 4.85-3.348 6.95-3.902 5.2-1.372 16.646-1.405 19.6-.057z"/></clipPath><g clip-path="url(#a)" transform="matrix(.795903 0 0 .795903 -1.13189932116 140.84096456217)"><path d="m-3.577-4.81h484.643v941.412h-484.643z" fill-rule="nonzero"/></g><g clip-path="url(#b)" transform="matrix(.795903 0 0 .795903 -1363.20231303 140.67020755303)"><path d="m2519.14-4.595h485.222v942.295h-485.222z" fill-rule="nonzero"/></g><g clip-path="url(#c)" transform="matrix(.795903 0 0 .795903 -38.6540140254 172.3357034597)"><path d="m490.726 198.413h402.269v364.013h-402.269z" fill-rule="nonzero"/></g></svg>